<?xml version="1.0" encoding="utf-8"?>
<!-- Generated by IcoMoon.io -->
<!DOCTYPE svg PUBLIC "-//W3C//DTD SVG 1.1//EN" "http://www.w3.org/Graphics/SVG/1.1/DTD/svg11.dtd">
<svg version="1.1" xmlns="http://www.w3.org/2000/svg" xmlns:xlink="http://www.w3.org/1999/xlink" width="48" height="48" viewBox="0 0 48 48">
<path fill="#9b59b6" d="M15.469 19.969h-3.469c-4.406 0-7.969 3.656-7.969 8.063s3.563 7.969 7.969 7.969h19.5zM6 10.5l2.531-2.531 33.469 33.469-2.531 2.531-4.031-3.938h-23.438c-6.656 0-12-5.344-12-12 0-6.469 5.156-11.719 11.531-12zM38.719 20.063c5.156 0.375 9.281 4.688 9.281 9.938 0 3.375-1.688 6.375-4.219 8.156l-2.906-2.906c1.875-1.031 3.094-3 3.094-5.25 0-3.281-2.719-6-6-6h-3v-1.031c0-6.094-4.875-10.969-10.969-10.969-1.875 0-3.563 0.375-5.063 1.219l-3-2.906c2.344-1.5 5.063-2.344 8.063-2.344 7.313 0 13.313 5.156 14.719 12.094z"></path>
</svg>
