<?xml version="1.0" encoding="utf-8"?>
<!-- Generated by IcoMoon.io -->
<!DOCTYPE svg PUBLIC "-//W3C//DTD SVG 1.1//EN" "http://www.w3.org/Graphics/SVG/1.1/DTD/svg11.dtd">
<svg version="1.1" xmlns="http://www.w3.org/2000/svg" xmlns:xlink="http://www.w3.org/1999/xlink" width="48" height="48" viewBox="0 0 48 48">
<path fill="#9b59b6" d="M37.969 36c3.281 0 6-2.719 6-6s-2.719-6-6-6h-3v-1.031c0-6.094-4.875-10.969-10.969-10.969-5.063 0-9.281 3.375-10.594 7.969h-1.406c-4.406 0-7.969 3.656-7.969 8.063s3.563 7.969 7.969 7.969h25.969zM38.719 20.063c5.156 0.375 9.281 4.688 9.281 9.938 0 5.531-4.5 10.031-10.031 10.031h-25.969c-6.656 0-12-5.344-12-12 0-6.188 4.688-11.25 10.688-11.906 2.531-4.781 7.5-8.156 13.313-8.156 7.313 0 13.313 5.156 14.719 12.094z"></path>
</svg>
